<mxfile host="app.diagrams.net" modified="2023-05-22T17:43:56.126Z" agent="Mozilla/5.0 (Windows NT 10.0; Win64; x64) AppleWebKit/537.36 (KHTML, like Gecko) Chrome/113.0.0.0 Safari/537.36" etag="H_2MZcEYIH5uIFYJzhwW" version="21.3.2" type="github">
  <diagram name="Page-1" id="5gD9S_qfb3yua5OunotD">
    <mxGraphModel dx="1434" dy="756" grid="1" gridSize="10" guides="1" tooltips="1" connect="1" arrows="1" fold="1" page="1" pageScale="1" pageWidth="850" pageHeight="1100" background="#FFFFFF" math="0" shadow="0">
      <root>
        <mxCell id="0" />
        <mxCell id="1" parent="0" />
        <mxCell id="IvDvG7JR_VM2cNuA_NT8-2" value="" style="rounded=1;whiteSpace=wrap;html=1;labelBackgroundColor=none;sketch=1;curveFitting=1;jiggle=2;gradientColor=none;gradientDirection=east;" parent="1" vertex="1">
          <mxGeometry x="5" y="10" width="830" height="760" as="geometry" />
        </mxCell>
        <mxCell id="G5nZQSFpa2zoZMKRh_J8-34" value="Extends" style="endArrow=block;endSize=16;endFill=0;html=1;rounded=1;labelBackgroundColor=none;fontColor=default;editable=1;sketch=1;curveFitting=1;jiggle=2;movable=1;resizable=1;rotatable=1;deletable=1;locked=0;connectable=1;edgeStyle=orthogonalEdgeStyle;" parent="1" source="G5nZQSFpa2zoZMKRh_J8-18" target="G5nZQSFpa2zoZMKRh_J8-22" edge="1">
          <mxGeometry width="160" relative="1" as="geometry">
            <mxPoint x="460" y="490" as="sourcePoint" />
            <mxPoint x="345" y="40" as="targetPoint" />
          </mxGeometry>
        </mxCell>
        <mxCell id="G5nZQSFpa2zoZMKRh_J8-71" value="Cursory Restaurant UML" style="text;strokeColor=#3700CC;fillColor=#6a00ff;html=1;fontSize=20;fontStyle=1;verticalAlign=middle;align=center;fontFamily=Architects Daughter;labelBackgroundColor=none;sketch=1;curveFitting=1;jiggle=2;fontColor=#ffffff;" parent="1" vertex="1">
          <mxGeometry x="250" y="10" width="340" height="40" as="geometry" />
        </mxCell>
        <mxCell id="-ZuLLY-UklYOzqyny9P1-8" value="" style="endArrow=diamondThin;endFill=1;endSize=24;rounded=0;sketch=1;hachureGap=4;jiggle=2;curveFitting=1;fontFamily=Helvetica;fontSize=16;html=1;" parent="1" source="G5nZQSFpa2zoZMKRh_J8-57" target="G5nZQSFpa2zoZMKRh_J8-18" edge="1">
          <mxGeometry width="160" relative="1" as="geometry">
            <mxPoint x="470" y="298" as="sourcePoint" />
            <mxPoint x="323.4778319405757" y="380" as="targetPoint" />
          </mxGeometry>
        </mxCell>
        <mxCell id="-ZuLLY-UklYOzqyny9P1-11" value="1" style="edgeLabel;html=1;align=center;verticalAlign=middle;resizable=0;points=[];fontSize=12;fontFamily=Architects Daughter;fontStyle=0;labelBackgroundColor=none;fontSource=https%3A%2F%2Ffonts.googleapis.com%2Fcss%3Ffamily%3DArchitects%2BDaughter;" parent="-ZuLLY-UklYOzqyny9P1-8" vertex="1" connectable="0">
          <mxGeometry x="0.75" relative="1" as="geometry">
            <mxPoint x="-17" as="offset" />
          </mxGeometry>
        </mxCell>
        <mxCell id="-ZuLLY-UklYOzqyny9P1-12" value="*" style="edgeLabel;html=1;align=center;verticalAlign=middle;resizable=0;points=[];fontSize=12;fontFamily=Architects Daughter;labelBackgroundColor=none;" parent="-ZuLLY-UklYOzqyny9P1-8" vertex="1" connectable="0">
          <mxGeometry x="-0.75" relative="1" as="geometry">
            <mxPoint x="8" as="offset" />
          </mxGeometry>
        </mxCell>
        <mxCell id="G5nZQSFpa2zoZMKRh_J8-57" value="Menu" style="swimlane;fontStyle=1;align=center;verticalAlign=top;childLayout=stackLayout;horizontal=1;startSize=26;horizontalStack=0;resizeParent=1;resizeParentMax=0;resizeLast=0;collapsible=1;marginBottom=0;whiteSpace=wrap;html=1;rounded=1;labelBackgroundColor=none;sketch=1;curveFitting=1;jiggle=2;swimlaneFillColor=#000000;fillColor=#6a00ff;fontColor=#ffffff;strokeColor=#3700CC;fillStyle=solid;" parent="1" vertex="1">
          <mxGeometry x="280" y="550" width="180" height="102.74418604651163" as="geometry">
            <mxRectangle x="46.11" y="410" width="73.89" height="30" as="alternateBounds" />
          </mxGeometry>
        </mxCell>
        <mxCell id="G5nZQSFpa2zoZMKRh_J8-58" value="+ contents: MenuContents" style="text;strokeColor=none;fillColor=none;align=left;verticalAlign=top;spacingLeft=4;spacingRight=4;overflow=hidden;rotatable=0;points=[[0,0.5],[1,0.5]];portConstraint=eastwest;whiteSpace=wrap;html=1;rounded=1;labelBackgroundColor=none;sketch=1;curveFitting=1;jiggle=2;" parent="G5nZQSFpa2zoZMKRh_J8-57" vertex="1">
          <mxGeometry y="26" width="180" height="33.25581395348837" as="geometry" />
        </mxCell>
        <mxCell id="G5nZQSFpa2zoZMKRh_J8-59" value="" style="line;strokeWidth=1;fillColor=none;align=left;verticalAlign=middle;spacingTop=-1;spacingLeft=3;spacingRight=3;rotatable=0;labelPosition=right;points=[];portConstraint=eastwest;rounded=1;labelBackgroundColor=none;sketch=1;curveFitting=1;jiggle=2;" parent="G5nZQSFpa2zoZMKRh_J8-57" vertex="1">
          <mxGeometry y="59.25581395348837" width="180" height="10.232558139534882" as="geometry" />
        </mxCell>
        <mxCell id="G5nZQSFpa2zoZMKRh_J8-60" value="+ constructor ( )" style="text;strokeColor=none;fillColor=none;align=left;verticalAlign=top;spacingLeft=4;spacingRight=4;overflow=hidden;rotatable=0;points=[[0,0.5],[1,0.5]];portConstraint=eastwest;whiteSpace=wrap;html=1;rounded=1;labelBackgroundColor=none;sketch=1;curveFitting=1;jiggle=2;" parent="G5nZQSFpa2zoZMKRh_J8-57" vertex="1">
          <mxGeometry y="69.48837209302326" width="180" height="33.25581395348837" as="geometry" />
        </mxCell>
        <mxCell id="G5nZQSFpa2zoZMKRh_J8-18" value="Restaurant" style="swimlane;fontStyle=1;align=center;verticalAlign=top;childLayout=stackLayout;horizontal=1;startSize=26;horizontalStack=0;resizeParent=1;resizeParentMax=0;resizeLast=0;collapsible=1;marginBottom=0;whiteSpace=wrap;html=1;rounded=1;labelBackgroundColor=none;sketch=1;curveFitting=1;jiggle=2;swimlaneFillColor=#000000;fillColor=#6a00ff;fontColor=#ffffff;strokeColor=#3700CC;fillStyle=solid;movable=1;resizable=1;rotatable=1;deletable=1;editable=1;locked=0;connectable=1;" parent="1" vertex="1">
          <mxGeometry x="380" y="300" width="250" height="122" as="geometry">
            <mxRectangle x="40" y="270" width="100" height="30" as="alternateBounds" />
          </mxGeometry>
        </mxCell>
        <mxCell id="G5nZQSFpa2zoZMKRh_J8-35" value="+ availableMenus: Menu [ ]&lt;br&gt;" style="text;strokeColor=none;fillColor=none;align=left;verticalAlign=top;spacingLeft=4;spacingRight=4;overflow=hidden;rotatable=0;points=[[0,0.5],[1,0.5]];portConstraint=eastwest;whiteSpace=wrap;html=1;rounded=1;labelBackgroundColor=none;sketch=1;curveFitting=1;jiggle=2;" parent="G5nZQSFpa2zoZMKRh_J8-18" vertex="1">
          <mxGeometry y="26" width="250" height="26" as="geometry" />
        </mxCell>
        <mxCell id="G5nZQSFpa2zoZMKRh_J8-36" value="+ category: FoodRestaurantCategoryEnum" style="text;strokeColor=none;fillColor=none;align=left;verticalAlign=top;spacingLeft=4;spacingRight=4;overflow=hidden;rotatable=0;points=[[0,0.5],[1,0.5]];portConstraint=eastwest;whiteSpace=wrap;html=1;rounded=1;labelBackgroundColor=none;sketch=1;curveFitting=1;jiggle=2;" parent="G5nZQSFpa2zoZMKRh_J8-18" vertex="1">
          <mxGeometry y="52" width="250" height="30" as="geometry" />
        </mxCell>
        <mxCell id="G5nZQSFpa2zoZMKRh_J8-20" value="" style="line;strokeWidth=1;fillColor=none;align=left;verticalAlign=middle;spacingTop=-1;spacingLeft=3;spacingRight=3;rotatable=0;labelPosition=right;points=[];portConstraint=eastwest;rounded=1;labelBackgroundColor=none;sketch=1;curveFitting=1;jiggle=2;" parent="G5nZQSFpa2zoZMKRh_J8-18" vertex="1">
          <mxGeometry y="82" width="250" height="8" as="geometry" />
        </mxCell>
        <mxCell id="G5nZQSFpa2zoZMKRh_J8-41" value="+ constructor ( )" style="text;strokeColor=none;fillColor=none;align=left;verticalAlign=top;spacingLeft=4;spacingRight=4;overflow=hidden;rotatable=0;points=[[0,0.5],[1,0.5]];portConstraint=eastwest;whiteSpace=wrap;html=1;rounded=1;labelBackgroundColor=none;sketch=1;curveFitting=1;jiggle=2;" parent="G5nZQSFpa2zoZMKRh_J8-18" vertex="1">
          <mxGeometry y="90" width="250" height="32" as="geometry" />
        </mxCell>
        <mxCell id="G5nZQSFpa2zoZMKRh_J8-22" value="Business" style="swimlane;fontStyle=1;align=center;verticalAlign=top;childLayout=stackLayout;horizontal=1;startSize=26;horizontalStack=0;resizeParent=1;resizeParentMax=0;resizeLast=0;collapsible=1;marginBottom=0;whiteSpace=wrap;html=1;rounded=1;labelBackgroundColor=none;fillStyle=solid;sketch=1;curveFitting=1;jiggle=2;swimlaneFillColor=#000000;fillColor=#6a00ff;fontColor=#ffffff;strokeColor=#3700CC;" parent="1" vertex="1">
          <mxGeometry x="30" y="70" width="210" height="270" as="geometry">
            <mxRectangle x="30" y="70" width="90" height="30" as="alternateBounds" />
          </mxGeometry>
        </mxCell>
        <mxCell id="G5nZQSFpa2zoZMKRh_J8-26" value="+ name: string" style="text;strokeColor=none;fillColor=none;align=left;verticalAlign=top;spacingLeft=4;spacingRight=4;overflow=hidden;rotatable=0;points=[[0,0.5],[1,0.5]];portConstraint=eastwest;whiteSpace=wrap;html=1;rounded=1;labelBackgroundColor=none;sketch=1;curveFitting=1;jiggle=2;" parent="G5nZQSFpa2zoZMKRh_J8-22" vertex="1">
          <mxGeometry y="26" width="210" height="26" as="geometry" />
        </mxCell>
        <mxCell id="G5nZQSFpa2zoZMKRh_J8-27" value="+ address: string" style="text;strokeColor=none;fillColor=none;align=left;verticalAlign=top;spacingLeft=4;spacingRight=4;overflow=hidden;rotatable=0;points=[[0,0.5],[1,0.5]];portConstraint=eastwest;whiteSpace=wrap;html=1;rounded=1;labelBackgroundColor=none;sketch=1;curveFitting=1;jiggle=2;" parent="G5nZQSFpa2zoZMKRh_J8-22" vertex="1">
          <mxGeometry y="52" width="210" height="26" as="geometry" />
        </mxCell>
        <mxCell id="G5nZQSFpa2zoZMKRh_J8-67" value="+ phoneNumber: string" style="text;strokeColor=none;fillColor=none;align=left;verticalAlign=top;spacingLeft=4;spacingRight=4;overflow=hidden;rotatable=0;points=[[0,0.5],[1,0.5]];portConstraint=eastwest;whiteSpace=wrap;html=1;rounded=1;labelBackgroundColor=none;sketch=1;curveFitting=1;jiggle=2;" parent="G5nZQSFpa2zoZMKRh_J8-22" vertex="1">
          <mxGeometry y="78" width="210" height="26" as="geometry" />
        </mxCell>
        <mxCell id="G5nZQSFpa2zoZMKRh_J8-28" value="+ history: bio" style="text;strokeColor=none;fillColor=none;align=left;verticalAlign=top;spacingLeft=4;spacingRight=4;overflow=hidden;rotatable=0;points=[[0,0.5],[1,0.5]];portConstraint=eastwest;whiteSpace=wrap;html=1;rounded=1;labelBackgroundColor=none;sketch=1;curveFitting=1;jiggle=2;" parent="G5nZQSFpa2zoZMKRh_J8-22" vertex="1">
          <mxGeometry y="104" width="210" height="26" as="geometry" />
        </mxCell>
        <mxCell id="G5nZQSFpa2zoZMKRh_J8-31" value="+ images: Images" style="text;strokeColor=none;fillColor=none;align=left;verticalAlign=top;spacingLeft=4;spacingRight=4;overflow=hidden;rotatable=0;points=[[0,0.5],[1,0.5]];portConstraint=eastwest;whiteSpace=wrap;html=1;rounded=1;labelBackgroundColor=none;sketch=1;curveFitting=1;jiggle=2;" parent="G5nZQSFpa2zoZMKRh_J8-22" vertex="1">
          <mxGeometry y="130" width="210" height="26" as="geometry" />
        </mxCell>
        <mxCell id="G5nZQSFpa2zoZMKRh_J8-29" value="+ owner: string" style="text;strokeColor=none;fillColor=none;align=left;verticalAlign=top;spacingLeft=4;spacingRight=4;overflow=hidden;rotatable=0;points=[[0,0.5],[1,0.5]];portConstraint=eastwest;whiteSpace=wrap;html=1;rounded=1;labelBackgroundColor=none;sketch=1;curveFitting=1;jiggle=2;" parent="G5nZQSFpa2zoZMKRh_J8-22" vertex="1">
          <mxGeometry y="156" width="210" height="26" as="geometry" />
        </mxCell>
        <mxCell id="G5nZQSFpa2zoZMKRh_J8-30" value="+ ownerImage: img&lt;br&gt;" style="text;strokeColor=none;fillColor=none;align=left;verticalAlign=top;spacingLeft=4;spacingRight=4;overflow=hidden;rotatable=0;points=[[0,0.5],[1,0.5]];portConstraint=eastwest;whiteSpace=wrap;html=1;rounded=1;labelBackgroundColor=none;sketch=1;curveFitting=1;jiggle=2;" parent="G5nZQSFpa2zoZMKRh_J8-22" vertex="1">
          <mxGeometry y="182" width="210" height="26" as="geometry" />
        </mxCell>
        <mxCell id="G5nZQSFpa2zoZMKRh_J8-42" value="+ customerRatings: BusinessRatings" style="text;strokeColor=none;fillColor=none;align=left;verticalAlign=top;spacingLeft=4;spacingRight=4;overflow=hidden;rotatable=0;points=[[0,0.5],[1,0.5]];portConstraint=eastwest;whiteSpace=wrap;html=1;rounded=1;labelBackgroundColor=none;sketch=1;curveFitting=1;jiggle=2;" parent="G5nZQSFpa2zoZMKRh_J8-22" vertex="1">
          <mxGeometry y="208" width="210" height="28" as="geometry" />
        </mxCell>
        <mxCell id="G5nZQSFpa2zoZMKRh_J8-24" value="" style="line;strokeWidth=1;fillColor=none;align=left;verticalAlign=middle;spacingTop=-1;spacingLeft=3;spacingRight=3;rotatable=0;labelPosition=right;points=[];portConstraint=eastwest;rounded=1;labelBackgroundColor=none;sketch=1;curveFitting=1;jiggle=2;" parent="G5nZQSFpa2zoZMKRh_J8-22" vertex="1">
          <mxGeometry y="236" width="210" height="8" as="geometry" />
        </mxCell>
        <mxCell id="G5nZQSFpa2zoZMKRh_J8-25" value="+ constructor ( )" style="text;strokeColor=none;fillColor=none;align=left;verticalAlign=top;spacingLeft=4;spacingRight=4;overflow=hidden;rotatable=0;points=[[0,0.5],[1,0.5]];portConstraint=eastwest;whiteSpace=wrap;html=1;rounded=1;labelBackgroundColor=none;sketch=1;curveFitting=1;jiggle=2;" parent="G5nZQSFpa2zoZMKRh_J8-22" vertex="1">
          <mxGeometry y="244" width="210" height="26" as="geometry" />
        </mxCell>
        <mxCell id="RTEgNIWNxifwDNX5CFAT-13" value="Data Service&lt;br&gt;" style="rounded=1;whiteSpace=wrap;html=1;sketch=1;hachureGap=4;jiggle=2;curveFitting=1;fontFamily=Architects Daughter;fontSource=https%3A%2F%2Ffonts.googleapis.com%2Fcss%3Ffamily%3DArchitects%2BDaughter;fontSize=20;fillColor=#0050ef;fontColor=#ffffff;strokeColor=#001DBC;" vertex="1" parent="1">
          <mxGeometry x="760" y="110" width="30" height="550" as="geometry" />
        </mxCell>
        <mxCell id="RTEgNIWNxifwDNX5CFAT-9" value="Notes" style="swimlane;fontStyle=0;childLayout=stackLayout;horizontal=1;startSize=26;fillColor=default;horizontalStack=0;resizeParent=1;resizeParentMax=0;resizeLast=0;collapsible=1;marginBottom=0;whiteSpace=wrap;html=1;sketch=1;hachureGap=4;jiggle=2;curveFitting=1;fontFamily=Architects Daughter;fontSource=https%3A%2F%2Ffonts.googleapis.com%2Fcss%3Ffamily%3DArchitects%2BDaughter;fontSize=18;swimlaneFillColor=default;" vertex="1" collapsed="1" parent="1">
          <mxGeometry x="100" y="20" width="90" height="40" as="geometry">
            <mxRectangle x="100" y="20" width="500" height="84" as="alternateBounds" />
          </mxGeometry>
        </mxCell>
        <mxCell id="RTEgNIWNxifwDNX5CFAT-10" value="+ How should data service work?" style="text;strokeColor=none;fillColor=none;align=left;verticalAlign=top;spacingLeft=4;spacingRight=4;overflow=hidden;rotatable=0;points=[[0,0.5],[1,0.5]];portConstraint=eastwest;whiteSpace=wrap;html=1;fontSize=20;fontFamily=Architects Daughter;gradientColor=none;" vertex="1" parent="RTEgNIWNxifwDNX5CFAT-9">
          <mxGeometry y="26" width="500" height="26" as="geometry" />
        </mxCell>
        <mxCell id="RTEgNIWNxifwDNX5CFAT-12" value="+ variabes and methods aren&#39;t set in stone" style="text;strokeColor=none;fillColor=none;align=left;verticalAlign=top;spacingLeft=4;spacingRight=4;overflow=hidden;rotatable=0;points=[[0,0.5],[1,0.5]];portConstraint=eastwest;whiteSpace=wrap;html=1;fontSize=20;fontFamily=Architects Daughter;" vertex="1" parent="RTEgNIWNxifwDNX5CFAT-9">
          <mxGeometry y="52" width="500" height="32" as="geometry" />
        </mxCell>
      </root>
    </mxGraphModel>
  </diagram>
</mxfile>
